<?xml version="1.0" encoding="utf-8"?>
<!-- Generator: Adobe Illustrator 27.0.1, SVG Export Plug-In . SVG Version: 6.00 Build 0)  -->
<svg version="1.1" id="Capa_1" xmlns="http://www.w3.org/2000/svg" xmlns:xlink="http://www.w3.org/1999/xlink" x="0px" y="0px"
	 viewBox="0 0 1000 1000" style="enable-background:new 0 0 1000 1000;" xml:space="preserve">
<style type="text/css">
	.st0{fill:#8998CE;}
	.st1{fill:#004B9A;}
	.st2{fill:#FDC732;}
	.st3{fill:#E60060;}
	.st4{fill:#0A9594;}
</style>
<g>
	<g>
		<path class="st0" d="M101.9,674.5h16.8v21.9c-2.7,0.9-5.3,1.5-7.7,1.9c-2.4,0.4-4.9,0.5-7.4,0.5c-6.4,0-11.3-1.9-14.6-5.6
			c-3.4-3.8-5.1-9.1-5.1-16.2c0-6.8,2-12.2,5.9-16c3.9-3.8,9.3-5.7,16.3-5.7c4.3,0,8.5,0.9,12.6,2.6l-3,7.2
			c-3.1-1.5-6.3-2.3-9.6-2.3c-3.9,0-7,1.3-9.3,3.9c-2.3,2.6-3.5,6.1-3.5,10.5c0,4.6,0.9,8.1,2.8,10.5c1.9,2.4,4.6,3.6,8.2,3.6
			c1.9,0,3.8-0.2,5.7-0.6V682h-8V674.5z"/>
		<path class="st0" d="M159.1,682.1v16.2h-9V656h12.3c5.8,0,10,1,12.8,3.1c2.8,2.1,4.1,5.3,4.1,9.5c0,2.5-0.7,4.7-2.1,6.6
			c-1.4,1.9-3.3,3.5-5.8,4.6c6.4,9.5,10.5,15.7,12.4,18.4h-10l-10.1-16.2H159.1z M159.1,674.8h2.9c2.8,0,4.9-0.5,6.3-1.4
			c1.4-0.9,2-2.4,2-4.5c0-2-0.7-3.4-2.1-4.3c-1.4-0.8-3.5-1.3-6.4-1.3h-2.7V674.8z"/>
		<path class="st0" d="M245.1,656v27.4c0,3.1-0.7,5.9-2.1,8.2c-1.4,2.4-3.4,4.2-6.1,5.4c-2.6,1.3-5.8,1.9-9.4,1.9
			c-5.4,0-9.7-1.4-12.7-4.2c-3-2.8-4.5-6.6-4.5-11.4V656h8.9v25.9c0,3.3,0.7,5.7,2,7.2c1.3,1.5,3.5,2.3,6.5,2.3
			c2.9,0,5.1-0.8,6.4-2.3c1.3-1.5,2-3.9,2-7.2V656H245.1z"/>
		<path class="st0" d="M306.1,669.2c0,4.6-1.4,8-4.3,10.4c-2.8,2.4-6.9,3.6-12.1,3.6h-3.8v15.1h-9V656h13.5c5.1,0,9,1.1,11.7,3.3
			C304.8,661.5,306.1,664.8,306.1,669.2z M285.8,675.9h3c2.8,0,4.8-0.5,6.2-1.6c1.4-1.1,2.1-2.7,2.1-4.8c0-2.1-0.6-3.7-1.7-4.7
			c-1.1-1-2.9-1.5-5.4-1.5h-4.1V675.9z"/>
		<path class="st0" d="M373.9,677.1c0,7-1.7,12.4-5.2,16.2c-3.5,3.8-8.5,5.6-14.9,5.6c-6.5,0-11.5-1.9-14.9-5.6
			c-3.5-3.8-5.2-9.2-5.2-16.2c0-7,1.7-12.4,5.2-16.1c3.5-3.7,8.5-5.6,15-5.6c6.5,0,11.5,1.9,14.9,5.6
			C372.2,664.7,373.9,670.1,373.9,677.1z M343,677.1c0,4.7,0.9,8.3,2.7,10.7c1.8,2.4,4.5,3.6,8,3.6c7.2,0,10.7-4.8,10.7-14.3
			c0-9.5-3.6-14.3-10.7-14.3c-3.6,0-6.3,1.2-8.1,3.6C343.9,668.8,343,672.4,343,677.1z"/>
		<path class="st0" d="M465.2,698.3h-24.4V656h24.4v7.4h-15.4v9.3h14.3v7.4h-14.3v10.9h15.4V698.3z"/>
		<path class="st0" d="M530.6,676.7c0,7-2,12.3-5.9,16c-4,3.7-9.7,5.6-17.2,5.6h-12V656h13.3c6.9,0,12.3,1.8,16.1,5.5
			S530.6,670.2,530.6,676.7z M521.2,677c0-9.1-4-13.6-12-13.6h-4.8v27.6h3.8C516.9,690.9,521.2,686.3,521.2,677z"/>
		<path class="st0" d="M560.7,698.3V656h9v42.3H560.7z"/>
		<path class="st0" d="M618.1,698.3h-9v-34.8h-11.5V656h32v7.5h-11.5V698.3z"/>
		<path class="st0" d="M695.9,677.1c0,7-1.7,12.4-5.2,16.2c-3.5,3.8-8.5,5.6-14.9,5.6c-6.5,0-11.5-1.9-14.9-5.6
			c-3.5-3.8-5.2-9.2-5.2-16.2c0-7,1.7-12.4,5.2-16.1c3.5-3.7,8.5-5.6,15-5.6c6.5,0,11.5,1.9,14.9,5.6
			C694.2,664.7,695.9,670.1,695.9,677.1z M665,677.1c0,4.7,0.9,8.3,2.7,10.7c1.8,2.4,4.5,3.6,8,3.6c7.2,0,10.7-4.8,10.7-14.3
			c0-9.5-3.6-14.3-10.7-14.3c-3.6,0-6.3,1.2-8.1,3.6C665.9,668.8,665,672.4,665,677.1z"/>
		<path class="st0" d="M735,682.1v16.2h-9V656h12.3c5.7,0,10,1,12.8,3.1c2.8,2.1,4.1,5.3,4.1,9.5c0,2.5-0.7,4.7-2.1,6.6
			c-1.4,1.9-3.3,3.5-5.8,4.6c6.4,9.5,10.5,15.7,12.4,18.4h-10l-10.1-16.2H735z M735,674.8h2.9c2.8,0,4.9-0.5,6.3-1.4
			c1.4-0.9,2-2.4,2-4.5c0-2-0.7-3.4-2.1-4.3c-1.4-0.8-3.5-1.3-6.4-1.3H735V674.8z"/>
		<path class="st0" d="M786.6,698.3V656h9v42.3H786.6z"/>
		<path class="st0" d="M853.5,698.3l-3.1-10.1H835l-3.1,10.1h-9.7l14.9-42.5h11l15,42.5H853.5z M848.3,680.7
			c-2.8-9.1-4.4-14.3-4.8-15.5c-0.4-1.2-0.6-2.1-0.8-2.8c-0.6,2.5-2.5,8.6-5.5,18.3H848.3z"/>
		<path class="st0" d="M889.9,698.3V656h9v34.9H916v7.4H889.9z"/>
	</g>
	<g>
		<path class="st1" d="M140,925h97.5c4.9,0,8.5,0.2,10.9,0.5c2.4,0.3,5.2,1.3,8.4,3c5.7,3,8.5,11.2,8.5,24.7
			c0,14.8-3.9,23.4-11.7,26c-3.6,1.3-9.1,1.9-16.5,1.9H111.8c-14.8,0-23.4-4-26-12c-1.3-3.4-1.9-8.8-1.9-16.1V776.8
			c0-10.8,2-18.1,6-22c4-3.9,11.6-5.9,22.8-5.9h124.8c4.9,0,8.5,0.2,10.9,0.5c2.4,0.3,5.2,1.3,8.4,3c5.7,3,8.5,11.2,8.5,24.7
			c0,14.8-3.9,23.4-11.7,26c-3.6,1.3-9.1,1.9-16.5,1.9H140v32h62.7c4.9,0,8.5,0.2,10.9,0.5c2.4,0.3,5.2,1.3,8.4,3
			c5.7,3,8.5,11.2,8.5,24.7c0,14.8-4,23.4-12,26c-3.6,1.3-9.1,1.9-16.5,1.9H140V925z"/>
		<path class="st1" d="M383.9,744.7c1.6-3.1,4.4-5.2,8.4-6.5c4-1.3,9.3-1.9,16-1.9s12,0.6,16,1.9c4,1.3,6.8,3.5,8.4,6.6
			c1.6,3.2,2.5,6,2.8,8.4c0.3,2.4,0.5,6.1,0.5,10.9v189c0,4.9-0.2,8.5-0.5,10.9c-0.3,2.4-1.3,5.1-3,8.1c-3.2,5.7-12.1,8.5-26.8,8.5
			c-14.7,0-22.9-5.2-24.5-15.5c-8.9,10.1-21.2,15.2-37,15.2c-19,0-36.3-8.3-51.9-24.9c-15.6-16.6-23.4-35.9-23.4-57.9
			c0-22.1,7.9-41.4,23.6-58.1c15.7-16.7,33-25,51.8-25c15.6,0,27.8,5.3,36.4,15.8v-66.5c0-4.9,0.2-8.5,0.5-10.9
			C381.4,750.5,382.4,747.7,383.9,744.7z M332.5,916.8c5.5,5.7,12.1,8.5,19.9,8.5c7.8,0,14.3-2.9,19.5-8.5c5.2-5.7,7.8-12,7.8-18.8
			c0-6.9-2.5-13.2-7.4-19.2c-5-5.9-11.7-8.9-20.1-8.9c-8.4,0-15.2,2.9-20.3,8.7c-5.1,5.8-7.6,12.2-7.6,19.2S327,911.1,332.5,916.8z"
			/>
		<path class="st1" d="M499.5,783.3c-1.6,3.1-4.4,5.2-8.4,6.5c-4,1.3-9.3,1.9-16,1.9s-12-0.6-16-1.9c-4-1.3-6.8-3.5-8.4-6.6
			c-1.6-3.2-2.5-6-2.9-8.4c-0.3-2.4-0.5-6.1-0.5-10.9c0-4.9,0.2-8.5,0.5-10.9c0.3-2.4,1.2-5.1,2.7-8.1c3-5.7,11.2-8.5,24.7-8.5
			c13.3,0,21.3,2.9,24.1,8.5c1.7,3.2,2.7,6,3,8.4c0.3,2.4,0.5,6.1,0.5,10.9c0,4.9-0.2,8.5-0.5,10.9
			C502.1,777.5,501.1,780.2,499.5,783.3z M447.4,842c0-4.9,0.2-8.5,0.5-10.9c0.3-2.4,1.2-5.2,2.7-8.4c3-5.5,11.2-8.2,24.7-8.2
			c10.1,0,17.3,1.8,21.5,5.4c3.6,3,5.5,7.5,5.7,13.6c0.2,2.1,0.3,5.2,0.3,9.2v110.8c0,4.9-0.2,8.5-0.5,10.9c-0.3,2.4-1.3,5.2-3,8.4
			c-2.7,5.5-10.9,8.2-24.4,8.2c-13.3,0-21.4-2.9-24.4-8.5c-1.5-3.2-2.4-5.9-2.7-8.2c-0.3-2.3-0.5-6-0.5-11.1V842z"/>
		<path class="st1" d="M515.5,966.2c-4-2.5-6-6.5-6-12c0-5.5,4-13.8,12-25c2.3-3.6,6.1-5.4,11.2-5.4c5.2,0,12.2,2.6,21.1,7.8
			c8.9,5.2,16.9,7.8,24.1,7.8c12.9,0,19.3-2.5,19.3-7.6c0-4-7.1-7-21.2-8.9c-13.3-1.9-26.5-6.9-39.6-14.9
			c-6.1-3.8-11.2-9.8-15.2-17.9c-4-8.1-6-17.8-6-29c0-33.4,22.9-50,68.7-50c15,0,30.4,3.6,46.2,10.8c7.4,3.4,11.1,7.6,11.1,12.7
			c0,5.1-2.3,11.3-7,18.7c-4.6,7.4-9.4,11.1-14.2,11.1c-2.5,0-7.2-1.6-14.1-4.8c-6.9-3.2-14.3-4.7-22.3-4.7c-12.5,0-18.7,2.3-18.7,7
			c0,6.3,7.2,10.4,21.5,12.3c13.9,1.5,27.4,5.5,40.5,12c6.1,3,11.2,8.1,15.4,15.4c4.1,7.3,6.2,16.4,6.2,27.4c0,11-2.1,20.3-6.2,28
			c-4.1,7.7-9.9,13.5-17.3,17.3c-13.5,6.5-30.5,9.8-50.8,9.8C553.9,983.9,534.3,978,515.5,966.2z"/>
		<path class="st1" d="M763.5,831.9c1.3-11.8,9.6-17.7,25-17.7c8.2,0,14.4,0.6,18.4,1.9c4,1.3,6.8,3.5,8.4,6.6
			c1.6,3.2,2.5,6,2.9,8.4c0.3,2.4,0.5,6.1,0.5,10.9v110.8c0,4.9-0.2,8.5-0.5,10.9c-0.3,2.4-1.2,5.2-2.7,8.4
			c-3,5.5-10.2,8.2-21.7,8.2c-11.5,0-19.2-1.4-23.1-4.3c-3.9-2.9-6.2-7-6.8-12.5c-7.8,11.2-20.8,16.8-39.1,16.8
			c-18.3,0-35.2-8.3-50.8-25c-15.6-16.7-23.4-36-23.4-58.1c0-22.1,7.9-41.4,23.6-57.9c15.7-16.6,33-24.9,51.8-24.9
			c7.2,0,13.7,1.3,19.6,3.8c5.9,2.5,10,4.9,12.3,7.1C760.1,827.6,762,829.8,763.5,831.9z M705.8,897.8c0,7,2.7,13.2,8.2,18.8
			c5.5,5.6,12.1,8.4,19.9,8.4c7.8,0,14.3-2.8,19.5-8.5c5.2-5.7,7.8-12,7.8-18.8c0-6.9-2.5-13.2-7.4-19.2c-5-5.9-11.6-8.9-19.9-8.9
			c-8.3,0-15.1,3-20.3,8.9C708.4,884.4,705.8,890.8,705.8,897.8z"/>
		<path class="st1" d="M830,763.5c0-4.9,0.2-8.5,0.5-10.9c0.3-2.4,1.2-5.2,2.7-8.4c3-5.7,11.2-8.5,24.7-8.5
			c12.9,0,20.9,2.8,24.1,8.5c1.7,3.2,2.7,6,3,8.5c0.3,2.5,0.5,6.2,0.5,11.1v146.6c0,7.6,0.6,12.4,1.9,14.4c1.3,2,4.1,3,8.4,3
			c4.3,0,7.2,0.2,8.7,0.5c1.5,0.3,3.3,1.2,5.4,2.7c4.2,2.7,6.3,10.2,6.3,22.5c0,13.3-2.1,21.4-6.3,24.4c-5.5,3.8-18.6,4.4-39.3,1.9
			c-16.3-2.1-26.8-7.5-31.7-16.1c-5.9-10.3-8.9-26.8-8.9-49.4V763.5z"/>
	</g>
	<path class="st2" d="M443.5,496l-61.4,108.8c-3.3,5.9,0.9,13.2,7.7,13.2h101c7.4,0,12.1-7.8,8.8-14.3l-55-107.6
		C444.3,495.6,443.8,495.6,443.5,496z"/>
	<path class="st3" d="M344.8,618.6H153.9c-20.6,0-33.8-21.9-24.1-40.1L421.7,28.6c8.8-16.6,32.6-16.6,41.4,0l103.4,195.3
		c2.5,4.7,2.4,10.3-0.2,14.9L353.7,613.4C351.9,616.6,348.5,618.6,344.8,618.6z"/>
	<g>
		<path class="st4" d="M568.7,314.7h130.2l-57-104.4c-7.9-14.5-28.7-14.7-36.8-0.3l-62.2,110C548.4,316.4,557,314.7,568.7,314.7z"/>
		<path class="st4" d="M534.8,604.1c-1.6-4.4-2.4-11.5-2.4-21.2V351.3c0-5.7,0.4-10.6,1.2-14.8l-80.2,141.9c-1,1.7-1,3.9,0,5.6
			l73.2,130.7c1.1,2,3.2,3.2,5.5,3.2h18.2C542,615.5,536.8,610.9,534.8,604.1z"/>
		<path class="st4" d="M844.1,580.8L738.7,387.6c-3.7,0.5-8.1,0.8-13.2,0.8H603v42.1h79c6.1,0,10.7,0.2,13.8,0.6
			c3.1,0.4,6.6,1.7,10.6,4c7.2,3.9,10.8,14.7,10.8,32.5c0,19.4-5.1,30.8-15.2,34.2c-4.5,1.7-11.4,2.5-20.7,2.5H603v42.1h122.9
			c6.1,0,10.7,0.2,13.8,0.6c3.1,0.4,6.6,1.7,10.6,4c7.2,3.9,10.8,14.7,10.8,32.5c0,19.4-4.9,30.8-14.8,34.2
			c-0.4,0.2-0.8,0.3-1.3,0.4h77.1C841.1,617.9,853.2,597.5,844.1,580.8z"/>
	</g>
</g>
</svg>
