<?xml version="1.0" encoding="utf-8"?>
<!-- Generator: Adobe Illustrator 27.0.1, SVG Export Plug-In . SVG Version: 6.00 Build 0)  -->
<svg version="1.1" id="Capa_1" xmlns="http://www.w3.org/2000/svg" xmlns:xlink="http://www.w3.org/1999/xlink" x="0px" y="0px"
	 viewBox="0 0 1080 252" style="enable-background:new 0 0 1080 252;" xml:space="preserve">
<style type="text/css">
	.st0{fill:#2E2F73;}
	.st1{fill:#FFFFFF;stroke:#FFFFFF;stroke-width:0.75;stroke-miterlimit:10;}
	.st2{fill:#E77B2B;}
	.st3{fill:url(#SVGID_1_);}
	.st4{fill:url(#SVGID_00000011727988992333752680000012554880029362297265_);}
	.st5{fill:url(#SVGID_00000105402832503747632450000000511496898732957832_);}
	.st6{fill:none;stroke:#FFFFFF;stroke-width:0.25;stroke-miterlimit:10;}
	.st7{fill:none;stroke:#FFFFFF;stroke-width:0.25;stroke-miterlimit:10;stroke-dasharray:1.0022,1.0022;}
	.st8{fill:#FFFFFF;}
	.st9{fill:#E40425;}
</style>
<g>
	<path class="st0" d="M201.3,229.5H998v-40.3H201.3c-1.8,0-3.2,1.6-3.2,3.5v33.2C198,227.9,199.5,229.5,201.3,229.5z"/>
	<g>
		
			<image style="overflow:visible;opacity:0.5;enable-background:new    ;" width="1202" height="90" xlink:href="D8A2016F.png"  transform="matrix(0.5631 0 0 0.5631 218.4541 190.9479)">
		</image>
		<g>
			<path class="st1" d="M214.8,195.8h2.7V219h10.4v2.5h-13.1L214.8,195.8L214.8,195.8z"/>
			<path class="st1" d="M234.2,194.7c0.6,0,1.1,0.2,1.5,0.6c0.4,0.4,0.6,0.9,0.6,1.4s-0.2,1-0.6,1.4c-0.4,0.4-0.9,0.6-1.5,0.6
				s-1.1-0.2-1.5-0.6c-0.4-0.4-0.6-0.9-0.6-1.4c0-0.6,0.2-1,0.6-1.4C233.1,194.9,233.6,194.7,234.2,194.7z M232.9,202.5h2.6v19h-2.6
				V202.5z"/>
			<path class="st1" d="M242.5,221.5v-26.3h2.6v10.6c1.1-1.3,2.3-2.2,3.6-2.8s2.8-0.9,4.4-0.9c2.8,0,5.2,1,7.2,2.9s3,4.3,3,7.1
				c0,2.7-1,5.1-3,7s-4.4,2.9-7.3,2.9c-1.6,0-3.1-0.3-4.4-1s-2.5-1.7-3.5-3v3.5H242.5z M252.8,219.6c1.4,0,2.7-0.3,4-1
				c1.2-0.7,2.2-1.6,2.9-2.8c0.7-1.2,1.1-2.5,1.1-3.8s-0.4-2.6-1.1-3.9c-0.7-1.2-1.7-2.2-2.9-2.9c-1.2-0.7-2.5-1-3.9-1s-2.7,0.3-4,1
				s-2.2,1.6-2.9,2.7c-0.7,1.2-1,2.4-1,3.9c0,2.2,0.8,4,2.3,5.5C248.7,218.9,250.6,219.6,252.8,219.6z"/>
			<path class="st1" d="M268.5,202.5h2.6v2.8c0.8-1.1,1.6-1.9,2.5-2.5c0.9-0.5,1.8-0.8,2.7-0.8c0.7,0,1.5,0.2,2.3,0.6l-1.3,2.1
				c-0.5-0.2-1-0.3-1.4-0.3c-0.9,0-1.7,0.3-2.5,1s-1.4,1.7-1.8,3.1c-0.3,1.1-0.5,3.3-0.5,6.6v6.4h-2.6L268.5,202.5L268.5,202.5z"/>
			<path class="st1" d="M291.8,202c3.1,0,5.6,1.1,7.7,3.2c1.8,1.9,2.8,4.2,2.8,6.9s-1,5-2.9,7s-4.4,3-7.5,3s-5.6-1-7.5-3
				s-2.9-4.3-2.9-7c0-2.6,0.9-4.9,2.8-6.8C286.1,203.1,288.7,202,291.8,202z M291.8,204.4c-2.1,0-4,0.8-5.5,2.3s-2.3,3.3-2.3,5.4
				c0,1.4,0.3,2.7,1,3.8c0.7,1.2,1.6,2.1,2.8,2.7c1.2,0.6,2.5,1,3.9,1s2.7-0.3,3.9-1c1.2-0.6,2.1-1.6,2.8-2.7
				c0.7-1.2,1.1-2.5,1.1-3.8c0-2.1-0.8-3.9-2.3-5.4C295.7,205.1,293.9,204.4,291.8,204.4z"/>
			<path class="st1" d="M320.4,202.5h2.6v3.5c1-1.3,2.2-2.3,3.5-3s2.8-1,4.4-1c2.8,0,5.3,1,7.3,2.9s3,4.3,3,7c0,2.8-1,5.2-3,7.1
				c-2,1.9-4.4,2.9-7.2,2.9c-1.6,0-3.1-0.3-4.4-0.9c-1.3-0.6-2.5-1.6-3.6-2.8v10.2h-2.6L320.4,202.5L320.4,202.5z M330.7,204.4
				c-2.2,0-4.1,0.7-5.6,2.2s-2.3,3.3-2.3,5.5c0,1.4,0.3,2.7,1,3.9c0.7,1.1,1.6,2.1,2.9,2.7c1.3,0.7,2.6,1,4,1s2.7-0.3,3.9-1
				c1.2-0.7,2.2-1.6,2.9-2.8c0.7-1.2,1.1-2.5,1.1-3.8s-0.4-2.6-1.1-3.8s-1.7-2.1-2.9-2.8C333.5,204.7,332.1,204.4,330.7,204.4z"/>
			<path class="st1" d="M346.6,202.5h2.6v2.8c0.8-1.1,1.6-1.9,2.5-2.5c0.9-0.5,1.8-0.8,2.7-0.8c0.7,0,1.5,0.2,2.3,0.6l-1.3,2.1
				c-0.5-0.2-1-0.3-1.4-0.3c-0.9,0-1.7,0.3-2.5,1s-1.4,1.7-1.8,3.1c-0.3,1.1-0.5,3.3-0.5,6.6v6.4h-2.6L346.6,202.5L346.6,202.5z"/>
			<path class="st1" d="M361.3,194.7c0.6,0,1.1,0.2,1.5,0.6c0.4,0.4,0.6,0.9,0.6,1.4s-0.2,1-0.6,1.4s-0.9,0.6-1.5,0.6
				s-1.1-0.2-1.5-0.6c-0.4-0.4-0.6-0.9-0.6-1.4c0-0.6,0.2-1,0.6-1.4C360.2,194.9,360.7,194.7,361.3,194.7z M360,202.5h2.6v19H360
				V202.5z"/>
			<path class="st1" d="M369.4,202.5h2.6v3.3c0.9-1.2,1.8-2.1,2.8-2.7c1.3-0.7,2.7-1.1,4.1-1.1c1,0,1.9,0.2,2.8,0.5
				c0.9,0.4,1.6,0.8,2.1,1.4c0.6,0.6,1,1.5,1.4,2.6c0.9-1.5,1.9-2.6,3.2-3.4c1.3-0.8,2.7-1.2,4.1-1.2s2.6,0.3,3.7,1s1.8,1.6,2.4,2.8
				c0.5,1.2,0.8,3,0.8,5.3v10.4h-2.6V211c0-2-0.2-3.4-0.5-4.2s-0.8-1.4-1.6-1.8c-0.7-0.5-1.6-0.7-2.6-0.7c-1.2,0-2.4,0.3-3.4,1
				s-1.8,1.6-2.3,2.8s-0.7,3.1-0.7,5.8v7.4H383v-9.7c0-2.3-0.2-3.8-0.5-4.7c-0.3-0.8-0.8-1.5-1.6-2c-0.7-0.5-1.6-0.7-2.7-0.7
				c-1.2,0-2.3,0.3-3.3,1s-1.8,1.6-2.3,2.7c-0.5,1.2-0.7,2.9-0.7,5.3v8h-2.6v-18.7H369.4z"/>
			<path class="st1" d="M423,215.2l2.2,1.1c-0.7,1.3-1.5,2.4-2.5,3.2c-0.9,0.8-2,1.4-3.1,1.9c-1.2,0.4-2.5,0.6-4,0.6
				c-3.3,0-5.8-1-7.6-3c-1.8-2-2.8-4.3-2.8-6.9c0-2.4,0.8-4.6,2.3-6.4c2-2.4,4.6-3.6,7.9-3.6c3.4,0,6.1,1.2,8.2,3.7
				c1.4,1.7,2.2,3.9,2.2,6.5h-18c0,2.2,0.8,4,2.2,5.4c1.4,1.4,3.2,2.1,5.3,2.1c1,0,2-0.2,3-0.5s1.8-0.8,2.5-1.3
				C421.5,217.3,422.2,216.4,423,215.2z M423,210.1c-0.3-1.3-0.8-2.3-1.5-3.1s-1.5-1.4-2.6-1.9s-2.2-0.7-3.4-0.7
				c-2,0-3.6,0.6-5.1,1.8c-1,0.9-1.8,2.2-2.3,3.9H423z"/>
			<path class="st1" d="M431.2,202.5h2.6v2.8c0.8-1.1,1.6-1.9,2.5-2.5c0.9-0.5,1.8-0.8,2.7-0.8c0.7,0,1.5,0.2,2.3,0.6l-1.3,2.1
				c-0.5-0.2-1-0.3-1.4-0.3c-0.9,0-1.7,0.3-2.5,1s-1.4,1.7-1.8,3.1c-0.3,1.1-0.5,3.3-0.5,6.6v6.4h-2.6L431.2,202.5L431.2,202.5z"/>
			<path class="st1" d="M454.4,202c3.1,0,5.6,1.1,7.7,3.2c1.8,1.9,2.8,4.2,2.8,6.9s-1,5-2.9,7s-4.4,3-7.5,3s-5.6-1-7.5-3
				s-2.9-4.3-2.9-7c0-2.6,0.9-4.9,2.8-6.8C448.8,203.1,451.3,202,454.4,202z M454.4,204.4c-2.1,0-4,0.8-5.5,2.3s-2.3,3.3-2.3,5.4
				c0,1.4,0.3,2.7,1,3.8c0.7,1.2,1.6,2.1,2.8,2.7c1.2,0.6,2.5,1,3.9,1s2.7-0.3,3.9-1c1.2-0.6,2.1-1.6,2.8-2.7
				c0.7-1.2,1.1-2.5,1.1-3.8c0-2.1-0.8-3.9-2.3-5.4C458.4,205.1,456.5,204.4,454.4,204.4z"/>
			<path class="st1" d="M503,195.2v26.3h-2.5v-3.3c-1.1,1.2-2.3,2.2-3.6,2.8c-1.3,0.6-2.8,0.9-4.4,0.9c-2.8,0-5.2-1-7.2-2.9
				s-3-4.3-3-7.1c0-2.7,1-5.1,3-7s4.5-2.9,7.3-2.9c1.6,0,3.1,0.3,4.5,1c1.3,0.7,2.5,1.7,3.5,3v-10.8H503z M492.7,204.4
				c-1.4,0-2.8,0.3-4,1s-2.2,1.6-2.9,2.8s-1.1,2.5-1.1,3.8s0.4,2.6,1.1,3.8s1.7,2.2,2.9,2.8c1.2,0.7,2.5,1,3.9,1s2.7-0.3,4-1
				s2.2-1.6,2.9-2.7c0.7-1.2,1-2.4,1-3.9c0-2.2-0.8-4-2.3-5.5C496.8,205.1,494.9,204.4,492.7,204.4z"/>
			<path class="st1" d="M527.1,215.2l2.2,1.1c-0.7,1.3-1.5,2.4-2.5,3.2c-0.9,0.8-2,1.4-3.1,1.9s-2.5,0.6-4,0.6c-3.3,0-5.8-1-7.6-3
				s-2.8-4.3-2.8-6.9c0-2.4,0.8-4.6,2.3-6.4c2-2.4,4.6-3.6,7.9-3.6c3.4,0,6.1,1.2,8.2,3.7c1.4,1.7,2.2,3.9,2.2,6.5h-18
				c0,2.2,0.8,4,2.2,5.4s3.2,2.1,5.3,2.1c1,0,2-0.2,3-0.5s1.8-0.8,2.5-1.3C525.6,217.3,526.3,216.4,527.1,215.2z M527.1,210.1
				c-0.3-1.3-0.8-2.3-1.5-3.1s-1.5-1.4-2.6-1.9s-2.2-0.7-3.4-0.7c-2,0-3.6,0.6-5.1,1.8c-1,0.9-1.8,2.2-2.3,3.9H527.1z"/>
			<path class="st1" d="M547.8,195.2h2.6v26.3h-2.6V195.2z"/>
			<path class="st1" d="M574,215.2l2.2,1.1c-0.7,1.3-1.5,2.4-2.5,3.2c-0.9,0.8-2,1.4-3.1,1.9c-1.2,0.4-2.5,0.6-4,0.6
				c-3.3,0-5.8-1-7.6-3s-2.8-4.3-2.8-6.9c0-2.4,0.8-4.6,2.3-6.4c2-2.4,4.6-3.6,7.9-3.6c3.4,0,6.1,1.2,8.2,3.7
				c1.4,1.7,2.2,3.9,2.2,6.5h-18c0,2.2,0.8,4,2.2,5.4s3.2,2.1,5.3,2.1c1,0,2-0.2,3-0.5s1.8-0.8,2.5-1.3
				C572.5,217.3,573.3,216.4,574,215.2z M574,210.1c-0.3-1.3-0.8-2.3-1.5-3.1s-1.5-1.4-2.6-1.9s-2.2-0.7-3.4-0.7
				c-2,0-3.6,0.6-5.1,1.8c-1,0.9-1.8,2.2-2.3,3.9H574z"/>
			<path class="st1" d="M602.6,206.4l-2,1.2c-1.8-2.2-4.2-3.3-7.2-3.3c-2.4,0-4.5,0.7-6.1,2.2s-2.4,3.3-2.4,5.4
				c0,1.4,0.4,2.7,1.1,3.9c0.7,1.2,1.8,2.2,3,2.8c1.3,0.7,2.7,1,4.3,1c2.9,0,5.3-1.1,7.2-3.3l2,1.3c-1,1.4-2.2,2.4-3.8,3.2
				s-3.4,1.1-5.5,1.1c-3.2,0-5.8-1-7.9-2.9c-2.1-1.9-3.1-4.2-3.1-7c0-1.8,0.5-3.5,1.5-5.1s2.3-2.8,4-3.7s3.6-1.3,5.7-1.3
				c1.3,0,2.6,0.2,3.8,0.6c1.2,0.4,2.3,0.9,3.1,1.5C601.2,204.7,602,205.5,602.6,206.4z"/>
			<path class="st1" d="M611.3,195.4h2.6v7.1h4.1v2.1h-4.1v16.9h-2.6v-16.9h-3.5v-2.1h3.5V195.4z"/>
			<path class="st1" d="M622.9,202.5h2.6v8.9c0,2.2,0.1,3.7,0.4,4.5c0.4,1.2,1.1,2.1,2.1,2.8s2.3,1,3.7,1s2.7-0.3,3.7-1
				s1.7-1.5,2.1-2.6c0.3-0.7,0.4-2.3,0.4-4.7v-8.9h2.6v9.3c0,2.6-0.3,4.6-1,5.9c-0.6,1.3-1.6,2.4-2.9,3.1c-1.3,0.8-2.9,1.1-4.9,1.1
				c-1.9,0-3.6-0.4-4.9-1.1c-1.3-0.8-2.3-1.8-2.9-3.1c-0.6-1.3-1-3.4-1-6.1L622.9,202.5L622.9,202.5z"/>
			<path class="st1" d="M646.7,202.5h2.6v2.8c0.8-1.1,1.6-1.9,2.5-2.5c0.9-0.5,1.8-0.8,2.7-0.8c0.7,0,1.5,0.2,2.3,0.6l-1.3,2.1
				c-0.5-0.2-1-0.3-1.4-0.3c-0.9,0-1.7,0.3-2.5,1s-1.4,1.7-1.8,3.1c-0.3,1.1-0.5,3.3-0.5,6.6v6.4h-2.6V202.5z"/>
			<path class="st1" d="M680.4,202.5v19h-2.5v-3.3c-1.1,1.2-2.3,2.2-3.6,2.8s-2.8,0.9-4.4,0.9c-2.8,0-5.2-1-7.2-2.9s-3-4.3-3-7.1
				c0-2.7,1-5.1,3-7s4.5-2.9,7.3-2.9c1.6,0,3.1,0.3,4.5,1c1.3,0.7,2.5,1.7,3.5,3v-3.5H680.4z M670.1,204.4c-1.4,0-2.8,0.3-4,1
				s-2.2,1.6-2.9,2.8s-1.1,2.5-1.1,3.8s0.4,2.6,1.1,3.8c0.7,1.2,1.7,2.2,2.9,2.8c1.2,0.7,2.5,1,3.9,1s2.7-0.3,4-1s2.2-1.6,2.9-2.7
				c0.7-1.2,1-2.4,1-3.9c0-2.2-0.8-4-2.3-5.5C674.2,205.1,672.3,204.4,670.1,204.4z"/>
			<path class="st1" d="M697.4,202.5h2.7l6.9,14.6l6.7-14.6h2.7l-11.9,25.9h-2.7l3.8-8.4L697.4,202.5z"/>
			<path class="st1" d="M750,215.2l2.2,1.1c-0.7,1.3-1.5,2.4-2.5,3.2c-0.9,0.8-2,1.4-3.1,1.9s-2.5,0.6-4,0.6c-3.3,0-5.8-1-7.6-3
				s-2.8-4.3-2.8-6.9c0-2.4,0.8-4.6,2.3-6.4c2-2.4,4.6-3.6,7.9-3.6c3.4,0,6.1,1.2,8.2,3.7c1.4,1.7,2.2,3.9,2.2,6.5h-18
				c0,2.2,0.8,4,2.2,5.4s3.2,2.1,5.3,2.1c1,0,2-0.2,3-0.5s1.8-0.8,2.5-1.3C748.5,217.3,749.2,216.4,750,215.2z M750,210.1
				c-0.3-1.3-0.8-2.3-1.5-3.1s-1.5-1.4-2.6-1.9s-2.2-0.7-3.4-0.7c-2,0-3.6,0.6-5.1,1.8c-1,0.9-1.8,2.2-2.3,3.9H750z"/>
			<path class="st1" d="M769.2,204.6l-1.7,1.6c-1.4-1.3-2.7-1.9-4-1.9c-0.8,0-1.6,0.3-2.1,0.8c-0.6,0.5-0.9,1.1-0.9,1.8
				c0,0.6,0.2,1.2,0.7,1.8s1.5,1.2,3.1,2c1.9,0.9,3.2,1.8,3.9,2.7s1,1.9,1,3c0,1.6-0.6,2.9-1.7,4c-1.2,1.1-2.6,1.6-4.3,1.6
				c-1.2,0-2.3-0.2-3.3-0.7s-1.9-1.1-2.6-2l1.6-1.7c1.3,1.4,2.7,2.1,4.2,2.1c1,0,1.9-0.3,2.6-0.9s1.1-1.4,1.1-2.2
				c0-0.7-0.2-1.3-0.7-1.9c-0.5-0.5-1.6-1.2-3.2-2c-1.8-0.9-3-1.8-3.7-2.6c-0.7-0.9-1-1.8-1-2.9c0-1.4,0.5-2.6,1.6-3.6
				c1-1,2.3-1.4,3.9-1.4C765.5,202,767.3,202.9,769.2,204.6z"/>
			<path class="st1" d="M794.6,206.4l-2,1.2c-1.8-2.2-4.2-3.3-7.2-3.3c-2.4,0-4.5,0.7-6.1,2.2s-2.4,3.3-2.4,5.4
				c0,1.4,0.4,2.7,1.1,3.9c0.7,1.2,1.8,2.2,3,2.8c1.3,0.7,2.7,1,4.3,1c2.9,0,5.3-1.1,7.2-3.3l2,1.3c-1,1.4-2.2,2.4-3.8,3.2
				s-3.4,1.1-5.5,1.1c-3.2,0-5.8-1-7.9-2.9c-2.1-1.9-3.1-4.2-3.1-7c0-1.8,0.5-3.5,1.5-5.1s2.3-2.8,4-3.7s3.6-1.3,5.7-1.3
				c1.3,0,2.6,0.2,3.8,0.6c1.2,0.4,2.3,0.9,3.1,1.5C793.3,204.7,794,205.5,794.6,206.4z"/>
			<path class="st1" d="M800.1,202.5h2.6v2.8c0.8-1.1,1.6-1.9,2.5-2.5c0.9-0.5,1.8-0.8,2.7-0.8c0.7,0,1.5,0.2,2.3,0.6l-1.3,2.1
				c-0.5-0.2-1-0.3-1.4-0.3c-0.9,0-1.7,0.3-2.5,1s-1.4,1.7-1.8,3.1c-0.3,1.1-0.5,3.3-0.5,6.6v6.4h-2.6V202.5z"/>
			<path class="st1" d="M814.8,194.7c0.6,0,1.1,0.2,1.5,0.6c0.4,0.4,0.6,0.9,0.6,1.4s-0.2,1-0.6,1.4c-0.4,0.4-0.9,0.6-1.5,0.6
				s-1.1-0.2-1.5-0.6c-0.4-0.4-0.6-0.9-0.6-1.4c0-0.6,0.2-1,0.6-1.4C813.7,194.9,814.2,194.7,814.8,194.7z M813.5,202.5h2.6v19h-2.6
				V202.5z"/>
			<path class="st1" d="M825.2,195.4h2.6v7.1h4.1v2.1h-4.1v16.9h-2.6v-16.9h-3.5v-2.1h3.5V195.4z"/>
			<path class="st1" d="M836.9,202.5h2.6v8.9c0,2.2,0.1,3.7,0.4,4.5c0.4,1.2,1.1,2.1,2.1,2.8s2.3,1,3.7,1s2.7-0.3,3.7-1
				s1.7-1.5,2.1-2.6c0.3-0.7,0.4-2.3,0.4-4.7v-8.9h2.6v9.3c0,2.6-0.3,4.6-1,5.9c-0.6,1.3-1.6,2.4-2.9,3.1c-1.3,0.8-2.9,1.1-4.9,1.1
				c-1.9,0-3.6-0.4-4.9-1.1c-1.3-0.8-2.3-1.8-2.9-3.1c-0.6-1.3-1-3.4-1-6.1L836.9,202.5L836.9,202.5z"/>
			<path class="st1" d="M860.6,202.5h2.6v2.8c0.8-1.1,1.6-1.9,2.5-2.5c0.9-0.5,1.8-0.8,2.7-0.8c0.7,0,1.5,0.2,2.3,0.6l-1.3,2.1
				c-0.5-0.2-1-0.3-1.4-0.3c-0.9,0-1.7,0.3-2.5,1s-1.4,1.7-1.8,3.1c-0.3,1.1-0.5,3.3-0.5,6.6v6.4h-2.6V202.5z"/>
			<path class="st1" d="M894.3,202.5v19h-2.5v-3.3c-1.1,1.2-2.3,2.2-3.6,2.8s-2.8,0.9-4.4,0.9c-2.8,0-5.2-1-7.2-2.9s-3-4.3-3-7.1
				c0-2.7,1-5.1,3-7s4.5-2.9,7.3-2.9c1.6,0,3.1,0.3,4.5,1c1.3,0.7,2.5,1.7,3.5,3v-3.5H894.3z M884,204.4c-1.4,0-2.8,0.3-4,1
				s-2.2,1.6-2.9,2.8s-1.1,2.5-1.1,3.8s0.4,2.6,1.1,3.8c0.7,1.2,1.7,2.2,2.9,2.8c1.2,0.7,2.5,1,3.9,1s2.7-0.3,4-1s2.2-1.6,2.9-2.7
				c0.7-1.2,1-2.4,1-3.9c0-2.2-0.8-4-2.3-5.5C888.1,205.1,886.2,204.4,884,204.4z"/>
		</g>
	</g>
	<g>
		
			<image style="overflow:visible;opacity:0.45;enable-background:new    ;" width="415" height="265" xlink:href="D8A2016D.png"  transform="matrix(0.5759 0 0 0.5759 765.0155 22.1228)">
		</image>
		<g>
			<path class="st2" d="M992.4,94.5c-3.8-5-8.3-5.7-10.5-5.7c-1.4,0-2.8,0.2-4.2,0.7c-2.8,1-5.1,2.9-6.6,5.4
				c-1.8-4.2-4.3-8.4-7.9-12c-5.9-6-13.6-9.2-22.3-9.2h-0.3H940c-15.3,1.4-23.2,13.2-27.3,25.8h-0.1l0,0c1-3.5,1.7-7.7-0.1-11.9
				c-0.9-2.4-2.6-4.4-5-6.4c-4.9-3.9-11.4-4.3-15.8-4.3c-2.4,0-4.7,0.1-6.8,0.3c-0.4-0.7-0.9-1.4-1.2-1.8c-2.1-2.4-5.1-4.4-8.3-5.6
				c-2.1-0.8-4.3-1.2-6.4-1.2c0.1-4.5-1.3-8.7-4.1-12.2c-1.7-2.2-4.2-3.5-7.1-3.5c-1.6,0-3.3,0.4-5,1.3c-2.3-4.4-5.7-9.2-10.4-12.2
				c-3.1-5.3-11.9-17.4-28.2-17.4c-1.1,0-2.2,0-3.3,0.2c-19.5,2-46.5,27-40.8,87.8c2.4,23.1,12.8,39.6,29.2,46.5
				c4.9,2,10,3.1,15.3,3.1c8.4,0,16.6-2.7,23.3-7.6c2.2,3,5.6,4.7,9.5,4.7c9.7,0,22.5-10.7,24.9-12.8s4.4-4.6,6-7.4
				c1.3,13.9,9,21.6,22.9,23.1c0.9,0.1,1.8,0.1,2.6,0.1c7.5,0,13.3-3.4,17.2-7c4.9,3.9,11.8,6.9,20.6,6.9
				c20.5-0.2,30-17.5,32.4-34.3c8.3-2.3,15.1-9.5,18.4-16.3C995.8,104.9,995.7,98.7,992.4,94.5z M831.6,90.1
				c-0.2,4.4-0.4,9.1-0.8,13.8c0,0.1,0,0.2,0,0.3c-0.3,3.6-0.8,7.1-1.6,10.3c-0.1,0.4-0.2,0.8-0.3,1.1c0,0.1,0,0.2-0.1,0.3
				c-1.1,4.3-3.3,10.4-6.5,14.6c0,0,0,0.1-0.1,0.1c-1.3,1.7-2.8,3-4.5,3.8c-7.1,3.2-14-7-15.8-12.5c-0.1-0.2-0.1-0.4-0.2-0.6
				c-4.7-15.8-3.7-31.5-0.7-47.5c0.2-1.1,0.3-2.7,1-3.6c0.1-0.1,0.2-0.3,0.4-0.5c0.2-0.1,0.4-0.3,0.6-0.4c0.4-0.2,0.8-0.2,1,0.2
				c1.8,4.5,4.2,8.4,7.2,11.5c0,0,0,0,0.1,0.1c4.7,4.9,10.8,7.8,18.1,8c0.6,0,1.3,0,1.9,0C831.6,89.4,831.6,89.7,831.6,90.1z
				 M908.6,129.8c-0.6,2.3-1.5,4.3-2.5,5.6c-0.1-0.3-0.2-0.6-0.2-0.9c-0.4-2.9,0-6.1,0.6-9.5l0,0l1.3-2.3l0.8,2.4l0,0
				C908.6,127.2,908.6,128.8,908.6,129.8z M942.4,136.4c-0.1,0.1-0.3,0.1-0.6,0.1c-0.8,0-1.7-0.4-2.2-1c-0.7-0.8-1.3-2.1-1.9-3.9
				c-0.9-3-1.3-6.5-1.3-10.3c0.6,0.7,1.2,1.4,1.9,2.1c2.6,2.3,5.4,3.7,8.1,4.6C945.2,134.7,942.9,136.1,942.4,136.4z"/>
		</g>
	</g>
	
		<linearGradient id="SVGID_1_" gradientUnits="userSpaceOnUse" x1="861.6162" y1="160.7122" x2="776.894" y2="160.7122" gradientTransform="matrix(1 0 0 -1 0 254)">
		<stop  offset="0" style="stop-color:#FED534"/>
		<stop  offset="8.312031e-03" style="stop-color:#FED94B"/>
		<stop  offset="2.147520e-02" style="stop-color:#FEDF68"/>
		<stop  offset="3.618591e-02" style="stop-color:#FFE380"/>
		<stop  offset="5.280232e-02" style="stop-color:#FFE792"/>
		<stop  offset="7.241291e-02" style="stop-color:#FFE99F"/>
		<stop  offset="9.789068e-02" style="stop-color:#FFEBA7"/>
		<stop  offset="0.1508" style="stop-color:#FFEBA9"/>
		<stop  offset="0.1575" style="stop-color:#FFEAA4"/>
		<stop  offset="0.2515" style="stop-color:#FFDD5E"/>
		<stop  offset="0.3299" style="stop-color:#FED42B"/>
		<stop  offset="0.389" style="stop-color:#FECE0C"/>
		<stop  offset="0.4218" style="stop-color:#FECC00"/>
		<stop  offset="0.4858" style="stop-color:#FDC200"/>
		<stop  offset="0.5923" style="stop-color:#FBA900"/>
		<stop  offset="0.6508" style="stop-color:#F99800"/>
		<stop  offset="0.7709" style="stop-color:#F8A200"/>
		<stop  offset="1" style="stop-color:#FDDB00"/>
	</linearGradient>
	<path class="st3" d="M859,60.9c-1.6-2.2-6.6,2.4-8.7,4.5c-0.3,0.3-0.8,0.2-0.9-0.2c-1-3.3-5-14.4-12.4-17.8c0,0-7.6-17.1-25.2-15.3
		c-17.5,1.8-39.1,27-34.2,79.6c1.7,16.4,8.6,33.7,24.8,40.4c10.9,4.6,23.7,2.8,32.7-4.8c15.6-13,18.2-35.7,18.1-54.6
		c0-4.5,0-8.9,0-13.4c0-0.4,0.2-0.8,0.6-1.1l5.2-4c1.5-1.2,2.5-2.9,2.6-4.9C861.7,67.1,861.4,63.9,859,60.9z M828.8,56.6
		c5.4,1.2,8.6,10.3,8.6,12.7c0,0.3-0.1,0.7-0.5,0.7c-6.9,1.2-13.3-4-13.6-8.9C823.3,58.2,826,56,828.8,56.6z M814,140.4
		c-5.4,0-10.9-4.8-14.1-8.6c-5.2-6.4-7.6-14.6-8.4-22.7c-1.3-12.3,0.2-25.4,3-37.4c1.5-6.2,3.6-12.5,7.3-17.8
		c3.4-4.9,8.9-8.9,15.1-8.2c0.4,0,0.6,0.5,0.2,0.8c-3.5,2.9-11.4,17-1.9,26.8c8.6,8.9,18.8,8.6,22.5,8.2c0.8-0.1,1.5,0.5,1.5,1.3
		C841.1,142.5,817.3,140.4,814,140.4z"/>
	
		<linearGradient id="SVGID_00000134211589811180150450000017847864814662384825_" gradientUnits="userSpaceOnUse" x1="987.4879" y1="138.7688" x2="842.6064" y2="138.7688" gradientTransform="matrix(1 0 0 -1 0 254)">
		<stop  offset="0" style="stop-color:#FED534"/>
		<stop  offset="0.1508" style="stop-color:#FFEBA9"/>
		<stop  offset="0.1916" style="stop-color:#FFE9A0"/>
		<stop  offset="0.2583" style="stop-color:#FFE587"/>
		<stop  offset="0.3427" style="stop-color:#FFDE5F"/>
		<stop  offset="0.4404" style="stop-color:#FED329"/>
		<stop  offset="0.5056" style="stop-color:#FECC00"/>
		<stop  offset="0.5698" style="stop-color:#FBB800"/>
		<stop  offset="0.6338" style="stop-color:#FAAB00"/>
		<stop  offset="0.6955" style="stop-color:#F9A700"/>
		<stop  offset="0.8659" style="stop-color:#F8B900"/>
		<stop  offset="1" style="stop-color:#FDC100"/>
	</linearGradient>
	<path style="fill:url(#SVGID_00000134211589811180150450000017847864814662384825_);" d="M986.5,99c-2.3-3-4.6-3.1-6.3-2.5
		s-2.9,2.1-3.3,3.8c-2.2,8.9-7.3,10.2-9.1,10.4c-0.3,0-0.6-0.2-0.6-0.6c0.1-7.3-5.8-29.3-26.4-29.1c-25.2,2.2-24.9,44.8-24.8,49.1
		c0,0.2,0,0.4-0.1,0.7c-0.9,4.2-3.2,9.6-7,11.9c-5.3,3.4-9.7-2.3-10.4-7.3c-1-7.1,1.3-15.1,2.9-22c0.9-3.8,1.9-7.6,2.8-11.4
		c0.9-3.5,2.9-8.2,1.5-11.7c-0.5-1.3-1.6-2.4-2.7-3.3c-5.1-4-14.8-2.5-21.5-2.3c-0.6,0-1.2-0.4-1.4-1c-0.5-1.3-1.7-3.3-1.9-3.5
		c-1.4-1.6-3.4-2.9-5.4-3.6c-4.8-1.8-9.7-0.3-11.4,4.8c-1.2,3.5-0.1,6.9,2.3,9.6c0.4,0.4,4.5,3.3,4.5,3.6
		c-0.4,14.5-0.3,35.9-13.9,43.4c-4.3,2.4-14.9,4-10.5,11.6c4.1,7.1,20.8-6.3,23.9-9c13-11.3,11.5-43.3,11.5-43.3h14
		c0.3,0,0.5,0.3,0.4,0.6c-1.2,3.2-6.7,18.4-7.7,32.5c-1.2,15.8,4.2,22.8,16.4,24.1c11.5,1.2,18-9.6,18.7-10.8h0.1
		c0.6,1.1,6.4,10.8,20.7,10.8c23-0.2,25.4-28.3,25.6-33c0-0.4,0.3-0.6,0.7-0.6C979.3,122,991,104.8,986.5,99z M945.5,143.1
		c-3.9,1.8-8.7,0.3-11.5-2.8c-1.7-1.9-2.7-4.3-3.4-6.7c-2.3-7.7-1.9-16.6-0.2-24.4c1.3-6.1,3.9-13.1,9.9-15.9
		c0.1-0.1,0.3-0.1,0.4-0.2c0.5-0.2,1.1,0.3,0.8,0.8c-1.6,4.1-5.6,16.8,1.8,23.9c3.8,3.4,8.7,3.9,10.5,3.9c0.4,0,0.7,0.3,0.7,0.7
		C954.1,129.3,952.5,139.9,945.5,143.1z M955.1,110.5c-0.1,0.2-0.3,0.4-0.6,0.3c-5-1.6-7.5-7.2-6-10.5c0.9-2,3.5-2.5,5.1-1.1
		C956.8,101.7,955.9,108.9,955.1,110.5z"/>
	<g>
		<g>
			<g>
				
					<image style="overflow:visible;opacity:0.45;enable-background:new    ;" width="200" height="114" xlink:href="D8A20173.png"  transform="matrix(0.5723 0 0 0.5723 670.5967 89.5942)">
				</image>
				<g>
					
						<linearGradient id="SVGID_00000135667940131409453590000009942134708613630596_" gradientUnits="userSpaceOnUse" x1="775.3055" y1="136.55" x2="675.7" y2="136.55" gradientTransform="matrix(1 0 0 -1 0 254)">
						<stop  offset="0" style="stop-color:#FFEBA9"/>
						<stop  offset="0.4777" style="stop-color:#FECC00"/>
						<stop  offset="0.919" style="stop-color:#F99800"/>
						<stop  offset="1" style="stop-color:#F8A200"/>
					</linearGradient>
					<path style="fill:url(#SVGID_00000135667940131409453590000009942134708613630596_);" d="M675.8,142.7h98c1.3,0,2-1.5,1.1-2.4
						l-24.2-24.1l23.9-21.6c1-0.9,0.3-2.4-1.1-2.4h-97.8L675.8,142.7L675.8,142.7z"/>
				</g>
			</g>
			<g>
				<line class="st6" x1="675.8" y1="139.4" x2="677" y2="139.4"/>
				<path class="st7" d="M679.4,139.4h85.3c0.8,0,1.2-0.9,0.6-1.4l-22.2-20.8c-0.7-0.7-0.7-1.8,0.1-2.4l21.9-18
					c0.6-0.5,0.2-1.4-0.6-1.4h-86.3"/>
				<line class="st6" x1="677" y1="95.3" x2="675.8" y2="95.3"/>
			</g>
		</g>
		<g>
			
				<image style="overflow:visible;opacity:0.55;enable-background:new    ;" width="110" height="84" xlink:href="D8A20175.png"  transform="matrix(0.5719 0 0 0.5719 686.1758 92.0778)">
			</image>
			<g>
				<path class="st8" d="M735.3,121.5c-1.4,2.6-3.5,5.9-8.2,6.6c-4.7,0.7-6.4-1.6-5.7-2.4c0.4-0.5,4.8,0.8,8.5-0.8
					c6.4-3.4,3.4-12-4.2-12c-7.6,0-10.2,9.1-11.9,12.9c-1.5,3.3-2.7,2.4-3.1,1.9c-0.4-0.5-0.4-2.4-0.3-3.9c0-0.5,0-1,0.1-1.3
					c0-0.1,0-0.2,0-0.3c0,0,0-0.1,0-0.2l0,0v-20.6c0-1.2-1-2.2-2.2-2.2s-2.2,1-2.2,2.2v13c-1.5-1-3.3-1.6-5.2-1.6
					c-5.3,0-9.6,4.3-9.6,9.6c0,5.3,4.3,9.6,9.6,9.6c2.3,0,4.3-0.8,6-2.1c0.8,1,2.3,2.5,4.3,2.7c2.5,0.3,4.9-2.9,5.7-4
					c0.2-0.2,0.5-0.3,0.7,0c1,1.1,4.2,4.2,9.3,4.1c6.2-0.2,9.8-5.4,11.7-8.4C740.4,121.3,736.7,119,735.3,121.5z M700.9,127.7
					c-2.9,0-5.2-2.3-5.2-5.2c0-2.9,2.3-5.2,5.2-5.2s5.2,2.3,5.2,5.2C706.1,125.4,703.8,127.7,700.9,127.7z M720.9,120.5
					c0-1,1.4-3.3,4.8-3.2c3.3,0.1,4.7,2.8,1.1,4.2C723.2,122.9,720.9,121,720.9,120.5z"/>
			</g>
		</g>
	</g>
	<g>
		
			<image style="overflow:visible;opacity:0.35;enable-background:new    ;" width="1185" height="296" xlink:href="D8A20177.png"  transform="matrix(0.5786 0 0 0.5786 1.167 10.3753)">
		</image>
		<g>
			<path class="st8" d="M669.2,52.6h-30.6c-2.8,0-5.2,1.8-6.1,4.2C626,53,618.2,51,609.4,51c-14.9,0-28.4,5.6-39.2,16.2
				c-5.3,5.1-9.5,10.8-12.5,16.9v-25c0-2.9-1.9-5.3-4.4-6.2c2.9-3.7,4.6-8.3,4.6-13.3c0-12-9.8-21.8-21.8-21.8s-21.8,9.8-21.8,21.8
				c0,4.9,1.6,9.4,4.3,13c-1.1-1-2.6-1.6-4.2-1.6c-7.8,0-14.6,1.9-20.2,5.5c-1-2.3-3.3-3.9-6-3.9H459c-3.6,0-6.5,2.9-6.5,6.5v28.4
				c-3.2-7.1-7.9-13.6-13.7-19.2c-11.9-11.2-26.3-16.9-43-16.9c-16,0-31.3,6.5-43,18.2c-2.6,2.6-4.8,5.3-6.9,8.2V60.7
				c0-3.6-2.9-6.5-6.5-6.5h-7.2V27c0-3.6-2.9-6.5-6.5-6.5h-31c-3.6,0-6.5,2.9-6.5,6.5v27.2h-6.6c-3.6,0-6.5,2.9-6.5,6.5v13.6
				c-11.4-15-28.3-23.2-48.7-23.2c-16.7,0-31.1,6.1-43,18.2c-5.6,5.7-9.9,12.1-12.9,18.9V60.7c0-2.9-1.9-5.3-4.4-6.2
				c2.9-3.7,4.6-8.3,4.6-13.3c0-12-9.8-21.8-21.8-21.8c-4.6,0-8.9,1.4-12.4,3.9c0-0.1-0.1-0.1-0.1-0.2c-1.2-1.7-3.2-2.6-5.3-2.6
				H95.8c-2.9,0-5.5,1.9-6.3,4.8L69.9,95.1L50.2,25.2c-0.8-2.8-3.4-4.8-6.3-4.8H9c-2.1,0-4,1-5.3,2.6c-1.2,1.7-1.6,3.8-1,5.8
				l42.6,137.7c0.8,2.7,3.4,4.6,6.2,4.6h36.4c2.9,0,5.4-1.9,6.2-4.6l32.4-104.8v102.9c0,3.6,2.9,6.5,6.5,6.5h30.4
				c3.6,0,6.5-2.9,6.5-6.5v-28.1c2.9,6.8,7,13.1,12.2,18.6c11.9,12.6,26.3,18.7,44.1,18.7c28.2,0,51-17,59.5-44.5
				c0.6-2,0.2-4.1-1-5.8c-1.2-1.7-3.2-2.7-5.3-2.7h-32.7c-2.1,0-4,1-5.2,2.6c-3.8,5.1-8.7,7.6-14.9,7.6c-11.4,0-18.3-7.2-18.3-19.2
				c0-10.8,7.1-18.3,17.3-18.3c7.6,0,12.8,2.6,15.9,7.8c1.2,2,3.3,3.2,5.6,3.2h32.4c2.1,0,4-1,5.3-2.7c1.2-1.7,1.6-3.8,1-5.8
				c-0.7-2.1-1.4-4.2-2.2-6.2h4.3v74.7c0,3.6,2.9,6.5,6.5,6.5h31c3.6,0,6.5-2.9,6.5-6.5V90.1h7.1c-2.8,7-4.3,14.6-4.3,22.3
				c0,16.4,5.9,31.2,17.1,42.9c11.9,12.6,26.3,18.7,44.1,18.7c17.2,0,32.1-6.1,44.1-18.2c5.2-5.2,9.3-11.1,12.2-17.5v24.8
				c0,3.6,2.9,6.5,6.5,6.5h31c3.6,0,6.5-2.9,6.5-6.5v-51.5c0-16.7,2.2-19.2,16.9-19.2h0.7v70.8c0,3.6,2.9,6.5,6.5,6.5h30.4
				c3.6,0,6.5-2.9,6.5-6.5v-25.3c3.4,6.9,8.2,13.1,14.3,18.5c10.3,9.2,22.7,13.9,36.9,13.9c9.4,0,17.3-1.8,24.4-5.8
				c0.6,3,3.2,5.2,6.4,5.2h29.6c3.6,0,6.5-2.9,6.5-6.5v-104C675.8,55.5,672.8,52.6,669.2,52.6z M128.5,56.3l1.3-4.1
				c0.5,0.8,1,1.6,1.5,2.3C130.2,54.8,129.2,55.5,128.5,56.3z M396.3,131.9c-9.8,0-18.1-8.7-18.1-19c0-10.6,8.1-19.3,18.1-19.3
				s18.1,8.6,18.1,19.3C414.4,123.3,406.3,131.9,396.3,131.9z M615.6,129.5c-11.8,0-20.4-8-20.4-19c0-10.6,8.6-19.2,19.2-19.2
				c10.7,0,18.9,8.4,18.9,19.6C633.3,121.3,625.5,129.5,615.6,129.5z"/>
			<path class="st9" d="M551.1,163.1h-30.4v-104h30.4V163.1z M520.7,39.6c0-8.4,6.8-15.3,15.3-15.3c8.4,0,15.3,6.8,15.3,15.3
				s-6.8,15.3-15.3,15.3C527.5,54.9,520.7,48,520.7,39.6z M88.1,164.7H51.7L9,27h34.9l26,92.2l26-92.2h34.9L88.1,164.7z
				 M247.1,127.5h32.7c-7.8,25-27.9,39.9-53.3,39.9c-15.9,0-28.7-5.4-39.3-16.7c-10.1-10.7-15.3-24.2-15.3-38.8s5.6-27.7,15.9-38.2
				c10.7-10.9,23.4-16.3,38.4-16.3c26.2,0,45.3,14.3,53.7,40.7h-32.4c-4.3-7.2-11.4-11-21.5-11c-13.8,0-23.8,10.5-23.8,24.8
				c0,15.9,10.1,25.8,24.8,25.8C235.3,137.8,242,134.3,247.1,127.5z M294.6,83.5h-13.2V60.7h13.2V27h31v33.7h13.8v22.9h-13.8v81.2
				h-31V83.5z M371.7,112.8c0,14.1,11.2,25.6,24.6,25.6c13.6,0,24.6-11.4,24.6-25.6c0-14.3-11-25.8-24.6-25.8
				C382.7,87,371.7,98.5,371.7,112.8z M341.5,112.4c0-14.5,5.6-27.9,15.9-38.2C367.8,63.8,381.6,58,395.7,58
				c15.1,0,28.1,5.2,38.6,15.1c11,10.5,17,24.8,17,38.9c0,15.7-5.2,28.7-15.7,39.1c-10.7,10.7-23.8,16.3-39.5,16.3
				c-15.9,0-28.7-5.4-39.3-16.7C346.7,140.3,341.5,126.9,341.5,112.4z M459,59.1h29.1v14.1c5-10.5,13.8-15.7,26.2-15.7v28.3h-0.8
				c-19.4,0-23.4,6.6-23.4,25.8v51.5h-31v-104H459z M639.6,163.1v-11.6c-9.1,8.9-18.4,12.2-30.8,12.2c-12.6,0-23.4-4.1-32.5-12.2
				c-12-10.7-18.2-24.6-18.2-40.9c0-14.9,5.8-28.3,16.7-38.7c9.7-9.5,21.5-14.3,34.7-14.3c12.6,0,22.3,4.3,29.3,13.2V59.1h30.6v104
				H639.6z M588.6,110.4c0,14.5,11.2,25.6,26.9,25.6c13.2,0,24.2-10.9,24.2-25.2c0-14.9-11-26.2-25.4-26.2
				C599.9,84.7,588.6,96.5,588.6,110.4z M133.3,41.2c0-8.4,6.8-15.3,15.3-15.3c8.4,0,15.3,6.8,15.3,15.3s-6.8,15.3-15.3,15.3
				S133.3,49.6,133.3,41.2z M163.7,164.7h-30.4v-104h30.4V164.7z"/>
		</g>
	</g>
</g>
</svg>
